{
    "asset" : {
        "generator" : "Khronos glTF Blender I/O v1.6.16",
        "version" : "2.0"
    },
    "scene" : 0,
    "scenes" : [
        {
            "name" : "Scene",
            "nodes" : [
                0
            ]
        }
    ],
    "nodes" : [
        {
            "mesh" : 0,
            "name" : "Text",
            "translation" : [
                -2.3995840549468994,
                1.3399999141693115,
                0
            ]
        }
    ],
    "materials" : [
        {
            "doubleSided" : true,
            "name" : "Material.001",
            "pbrMetallicRoughness" : {
                "baseColorFactor" : [
                    0.800000011920929,
                    0.800000011920929,
                    0.800000011920929,
                    1
                ],
                "metallicFactor" : 0,
                "roughnessFactor" : 0.5
            }
        }
    ],
    "meshes" : [
        {
            "name" : "Text",
            "primitives" : [
                {
                    "attributes" : {
                        "POSITION" : 0,
                        "NORMAL" : 1,
                        "TEXCOORD_0" : 2
                    },
                    "indices" : 3,
                    "material" : 0
                }
            ]
        }
    ],
    "accessors" : [
        {
            "bufferView" : 0,
            "componentType" : 5126,
            "count" : 17977,
            "max" : [
                4.958158493041992,
                0.20999999344348907,
                0.9975073337554932
            ],
            "min" : [
                0.03831629455089569,
                -0.20999999344348907,
                -0.5586782693862915
            ],
            "type" : "VEC3"
        },
        {
            "bufferView" : 1,
            "componentType" : 5126,
            "count" : 17977,
            "type" : "VEC3"
        },
        {
            "bufferView" : 2,
            "componentType" : 5126,
            "count" : 17977,
            "type" : "VEC2"
        },
        {
            "bufferView" : 3,
            "componentType" : 5123,
            "count" : 32712,
            "type" : "SCALAR"
        }
    ],
    "bufferViews" : [
        {
            "buffer" : 0,
            "byteLength" : 215724,
            "byteOffset" : 0
        },
        {
            "buffer" : 0,
            "byteLength" : 215724,
            "byteOffset" : 215724
        },
        {
            "buffer" : 0,
            "byteLength" : 143816,
            "byteOffset" : 431448
        },
        {
            "buffer" : 0,
            "byteLength" : 65424,
            "byteOffset" : 575264
        }
    ],
    "buffers" : [
        {
            "byteLength" : 640688,
            "uri" : "data:application/octet-stream;base64,"
        }
    ]
}
